<svg xmlns="http://www.w3.org/2000/svg" xmlns:xlink="http://www.w3.org/1999/xlink" width="1040" height="369.07"><rect width="1040" height="369.07" rx="0" ry="0" class="a"/><svg height="369.07" viewBox="0 0 104 36.907" width="1040" xmlns="http://www.w3.org/2000/svg" xmlns:xlink="http://www.w3.org/1999/xlink"><style>@keyframes h{0%{transform:translateX(0)}5.99%{transform:translateX(-104px)}8.62%{transform:translateX(-208px)}9.17%{transform:translateX(-312px)}9.76%{transform:translateX(-416px)}10.28%{transform:translateX(-520px)}10.79%{transform:translateX(-624px)}11.3%{transform:translateX(-728px)}12.09%{transform:translateX(-832px)}12.99%{transform:translateX(-936px)}13.01%{transform:translateX(-1040px)}30.29%{transform:translateX(-1144px)}48.83%{transform:translateX(-1248px)}75.48%{transform:translateX(-1352px)}to{transform:translateX(-1456px)}}.a{fill:#282d35}.c,.d,.e{white-space:pre}.c{fill:#a8cc8c;font-weight:700}.d,.e{fill:#b9c0cb}.e{fill:#71bef2;font-weight:700}</style><g font-family="Monaco,Consolas,Menlo,'Bitstream Vera Sans Mono','Powerline Symbols',monospace" font-size="1.67"><defs><symbol id="1"><text y="1.67" class="c">Comm3</text><text x="5.01" y="1.67" class="d">:</text><text x="6.012" y="1.67" class="e">~/repos/tutorial-main</text><text x="27.054" y="1.67" class="d">$</text></symbol><symbol id="2"><text y="1.67" class="c">Comm3</text><text x="5.01" y="1.67" class="d">:</text><text x="6.012" y="1.67" class="e">~/repos/tutorial-main</text><text x="27.054" y="1.67" class="d">$</text><text x="29.058" y="1.67" class="d">make</text></symbol><symbol id="3"><text y="1.67" class="c">Comm3</text><text x="5.01" y="1.67" class="d">:</text><text x="6.012" y="1.67" class="e">~/repos/tutorial-main</text><text x="27.054" y="1.67" class="d">$</text><text x="29.058" y="1.67" class="d">make</text><text x="34.068" y="1.67" class="d">it</text></symbol><symbol id="4"><text y="1.67" class="d">Create</text><text x="7.014" y="1.67" class="d">venv</text></symbol><symbol id="5"><text y="1.67" class="d">Update</text><text x="7.014" y="1.67" class="d">pip</text></symbol><symbol id="6"><text y="1.67" class="d">Installing</text><text x="11.022" y="1.67" class="d">requirements</text></symbol><symbol id="7"><text y="1.67" class="d">Create</text><text x="7.014" y="1.67" class="d">git</text><text x="11.022" y="1.67" class="d">repository</text></symbol><symbol id="a"><path fill="transparent" d="M0 0h104v17H0z"/></symbol><symbol id="b"><path fill="#6f7683" d="M0 0h1.102v2.171H0z"/></symbol></defs><path class="a" d="M0 0h104v36.907H0z"/><g style="animation-duration:18.865042s;animation-iteration-count:infinite;animation-name:h;animation-timing-function:steps(1,end)"><svg width="1560"><svg><use xlink:href="#a"/><use xlink:href="#b" x="-.004"/></svg><svg x="104"><use xlink:href="#a"/><use xlink:href="#b" x="28.996"/><use xlink:href="#1"/></svg><svg x="208"><use xlink:href="#a"/><use xlink:href="#b" x="29.996"/><text y="1.67" class="c">Comm3</text><text x="5.01" y="1.67" class="d">:</text><text x="6.012" y="1.67" class="e">~/repos/tutorial-main</text><text x="27.054" y="1.67" class="d">$</text><text x="29.058" y="1.67" class="d">m</text></svg><svg x="312"><use xlink:href="#a"/><use xlink:href="#b" x="30.996"/><text y="1.67" class="c">Comm3</text><text x="5.01" y="1.67" class="d">:</text><text x="6.012" y="1.67" class="e">~/repos/tutorial-main</text><text x="27.054" y="1.67" class="d">$</text><text x="29.058" y="1.67" class="d">ma</text></svg><svg x="416"><use xlink:href="#a"/><use xlink:href="#b" x="31.996"/><text y="1.67" class="c">Comm3</text><text x="5.01" y="1.67" class="d">:</text><text x="6.012" y="1.67" class="e">~/repos/tutorial-main</text><text x="27.054" y="1.67" class="d">$</text><text x="29.058" y="1.67" class="d">mak</text></svg><svg x="520"><use xlink:href="#a"/><use xlink:href="#b" x="32.996"/><use xlink:href="#2"/></svg><svg x="624"><use xlink:href="#a"/><use xlink:href="#b" x="33.996"/><use xlink:href="#2"/></svg><svg x="728"><use xlink:href="#a"/><use xlink:href="#b" x="34.996"/><text y="1.67" class="c">Comm3</text><text x="5.01" y="1.67" class="d">:</text><text x="6.012" y="1.67" class="e">~/repos/tutorial-main</text><text x="27.054" y="1.67" class="d">$</text><text x="29.058" y="1.67" class="d">make</text><text x="34.068" y="1.67" class="d">i</text></svg><svg x="832"><use xlink:href="#a"/><use xlink:href="#b" x="35.996"/><use xlink:href="#3"/></svg><svg x="936"><use xlink:href="#a"/><use xlink:href="#b" x="-.004" y="2.146"/><use xlink:href="#3"/></svg><svg x="1040"><use xlink:href="#a"/><use xlink:href="#b" x="-.004" y="4.317"/><use xlink:href="#3"/><use xlink:href="#4" y="2.171"/></svg><svg x="1144"><use xlink:href="#a"/><use xlink:href="#b" x="-.004" y="6.488"/><use xlink:href="#3"/><use xlink:href="#4" y="2.171"/><use xlink:href="#5" y="4.342"/></svg><svg x="1248"><use xlink:href="#a"/><use xlink:href="#b" x="-.004" y="8.659"/><use xlink:href="#3"/><use xlink:href="#4" y="2.171"/><use xlink:href="#5" y="4.342"/><use xlink:href="#6" y="6.513"/></svg><svg x="1352"><use xlink:href="#a"/><use xlink:href="#b" x="-.004" y="10.83"/><use xlink:href="#3"/><use xlink:href="#4" y="2.171"/><use xlink:href="#5" y="4.342"/><use xlink:href="#6" y="6.513"/><use xlink:href="#7" y="8.684"/></svg><svg x="1456"><use xlink:href="#a"/><use xlink:href="#b" x="28.996" y="10.83"/><use xlink:href="#3"/><use xlink:href="#4" y="2.171"/><use xlink:href="#5" y="4.342"/><use xlink:href="#6" y="6.513"/><use xlink:href="#7" y="8.684"/><use xlink:href="#1" y="10.855"/></svg></svg></g></g></svg></svg>